<?xml version="1.0" encoding="utf-8"?>
<!-- Generator: Adobe Illustrator 15.0.2, SVG Export Plug-In . SVG Version: 6.00 Build 0)  -->
<!DOCTYPE svg PUBLIC "-//W3C//DTD SVG 1.1//EN" "http://www.w3.org/Graphics/SVG/1.1/DTD/svg11.dtd">
<svg version="1.1" id="Layer_1" xmlns="http://www.w3.org/2000/svg" xmlns:xlink="http://www.w3.org/1999/xlink" x="0px" y="0px"
	 width="300px" height="100px" viewBox="0 0 300 100" enable-background="new 0 0 300 100" xml:space="preserve">
<g>
	<path d="M42.753,18.441c-2.674,0-10.475-0.138-11.858-0.304l-0.086,2.364c2.213,0.166,3.932,1.153,6.329,1.568
		c0.278,3.574,0.468,16.138,0.468,21.259v6.556c0,12.861-0.265,24.654-0.591,25.794l-0.621,2.431l-0.298,1.17l-0.299,1.169
		L37,80.359l1.204-0.089c0,0,0.547-0.042,0.485-0.038c0,0,15.778-0.066,15.774-0.066c37.965,0,51.435-19.889,51.435-36.92
		c0-9.164-5.897-16.914-16.174-21.262c-5.66-2.426-15.706-3.875-26.87-3.875c-3.41,0-8.402,0.108-12.808,0.204
		C46.86,18.38,44.109,18.441,42.753,18.441z M83.812,67.35c-6.456,4.594-15.373,7.125-25.106,7.125
		c-1.608,0-5.828-0.298-9.185-1.199c-0.324-4.426-0.561-18.839-0.561-22.644v-3.237c0-3.4,0.306-19.282,0.546-23.423
		c1.64-0.21,3.715-0.337,5.603-0.337c14.39,0,24.466,2.097,30.802,6.413c7.293,4.963,8.277,11.848,8.277,17.927
		C94.188,55.821,90.599,62.52,83.812,67.35z"/>
	<path d="M227.843,71.722c-6.454-6.135-9.208-12.517-9.208-21.34c0-7.92,3.333-15.614,9.383-21.664
		c7.484-7.483,18.096-11.605,29.88-11.605c8.418,0,17.467,0.851,26.604,7.019c7.524,5.035,12.198,13.473,12.198,22.018
		c0,20.383-16.9,35.178-40.185,35.178C244.017,81.328,234.639,78.186,227.843,71.722z M284.727,50.88
		c0-7.037-2.796-13.708-7.873-18.785c-5.497-5.497-12.98-8.524-21.075-8.524c-12.094,0-26.216,6.087-26.216,23.243
		c0,6.727,3.01,13.594,8.259,18.842c5.834,5.834,13.621,9.047,21.922,9.047c7.946,0,14.192-2.216,18.563-6.586
		C282.447,63.976,284.727,57.854,284.727,50.88z"/>
	<path d="M22.297,21.579c3.319-0.333,4.499-0.912,6.342-1.078l0.086-2.364c-1.566,0.166-8.452,0.332-13.155,0.332
		c-3.78,0-11.325-0.166-13.077-0.332l0.524,2.334c1.752,0.166,3.98,0.775,5.825,1.107c0.26,4.479,0.349,19.129,0.349,22.276V57.65
		c0,8.252-1.222,28.322-1.579,31.694l-0.107,1.01l14.813-4.388l0.35-0.311l-0.11-0.499l-0.111-0.499
		c-0.194-0.872-0.42-8.295-0.42-26.345V44.27C22.027,30.877,22.178,23.488,22.297,21.579z"/>
	<path d="M214.51,21.658c2.674-0.333,3.931-1.103,5.775-1.27l0.554-2.279c-1.66,0.166-7.236,0.333-11.847,0.333
		c-3.596,0-11.514-0.167-13.082-0.333l0.461,2.279c2.674,0.167,3.756,0.831,5.324,1.162c0.353,3.45,0.454,15.126,0.454,20.369v3.336
		c-8.108-0.07-31.118-0.041-37.898,0l0.007-3.336c0-6.289,0.246-16.91,0.557-20.369c1.475-0.332,2.639-0.995,5.218-1.162
		l0.461-2.279c-1.475,0.166-7.144,0.333-11.753,0.333c-3.504,0-10.094-0.167-11.661-0.333l0.461,2.279
		c3.135,0.249,4.224,0.831,5.884,1.162l-0.027,0.031c0.261,4.398,0.382,19.002,0.382,22.163c0,0,0,7.8,0,7.803l0.022,5.9
		c0.042,8.798,0.234,20.006-0.048,23.301l-0.039,0.278l11.318-3.396l-0.034-0.29l-0.057-0.457
		c-0.365-3.046-0.684-15.115-0.684-23.382l-0.049-3.885c3.017-0.051,33.103-1.287,37.94-1.244v5.163c0,8.726,0,19.582-0.521,22.237
		l-0.203,1.036l-0.204,1.033h1.057h1.054h9.902h1.089h1.089l-0.243-1.06l-0.243-1.063c-0.543-2.372-0.785-14.854-0.785-26.167
		v-5.809C214.14,39.967,214.223,25.591,214.51,21.658z"/>
	<path d="M142.514,84.309l11.358-3.409l-0.655-1.09c-0.03-0.057-2.184-4.128-4.667-10.201c-1.074-2.626-3.009-7.71-4.88-12.625
		c-2.244-5.897-4.363-11.468-4.89-12.52c-0.709-1.419-13.375-35.432-13.503-35.774l-0.193-0.518l-0.21,0.51
		c-0.318,0.768-1.803,4.619-4.049,10.448c-8.013,20.786-24.302,63.045-28.561,71.706l9.023-4.512
		c1.725-7.077,7.536-23.575,10.057-30.729c0.695-1.973,1.155-3.278,1.283-3.679c0.062-0.194,0.148-0.423,0.258-0.712
		c0.101-0.264,0.515-1.692,0.655-2.084l15.457-0.814c0.624,1.559,6.993,17.645,5.608,13.764L142.514,84.309z M114.812,45.374
		c2.183-5.975,5.409-14.213,6.745-16.904l6.272,16.904H114.812z"/>
</g>
</svg>
