<?xml version="1.0" encoding="utf-8"?>
<!-- Generator: Adobe Illustrator 15.0.2, SVG Export Plug-In . SVG Version: 6.00 Build 0)  -->
<!DOCTYPE svg PUBLIC "-//W3C//DTD SVG 1.1//EN" "http://www.w3.org/Graphics/SVG/1.1/DTD/svg11.dtd">
<svg version="1.1" id="Layer_1" xmlns="http://www.w3.org/2000/svg" xmlns:xlink="http://www.w3.org/1999/xlink" x="0px" y="0px"
	 width="223.031px" height="62.598px" viewBox="0 0 223.031 62.598" enable-background="new 0 0 223.031 62.598"
	 xml:space="preserve">
<g>
	<path d="M30.616,7.73c-2.045,0-7.957-0.075-9.018-0.227l-0.076,1.818c1.667,0.151,2.956,0.91,4.774,1.212
		c0.227,2.729,0.379,12.202,0.379,16.142v5.002c0,9.776-0.228,18.719-0.456,19.553l-0.454,1.818l-0.228,0.908l-0.227,0.91
		l0.909-0.076l0.91-0.074h0.379l11.974-0.077c28.797,0,38.954-15.08,38.954-27.964c0-6.972-4.472-12.808-12.278-16.142
		C61.84,8.715,54.261,7.578,45.773,7.578c-2.577,0-6.366,0.077-9.7,0.152C33.724,7.73,31.602,7.73,30.616,7.73z M61.688,44.789
		c-4.926,3.484-11.671,5.379-19.022,5.379c-1.213,0-4.396-0.226-6.972-0.909c-0.227-3.333-0.378-14.247-0.378-17.126v-2.426
		c0-2.577,0.227-14.625,0.378-17.733c1.213-0.151,2.804-0.227,4.244-0.227c10.913,0,18.568,1.592,23.342,4.85
		c5.531,3.79,6.29,8.942,6.29,13.565C69.57,36.074,66.842,41.15,61.688,44.789z"/>
	<path d="M170.817,48.122c-4.927-4.622-6.973-9.473-6.973-16.141c0-5.987,2.499-11.823,7.123-16.446
		c5.685-5.684,13.718-8.791,22.661-8.791c6.367,0,13.261,0.682,20.157,5.305c5.686,3.79,9.245,10.231,9.245,16.672
		c0,15.461-12.806,26.677-30.464,26.677C183.095,55.398,175.97,53.049,170.817,48.122z M213.938,32.359
		c0-5.304-2.123-10.382-5.988-14.248c-4.167-4.168-9.851-6.441-15.99-6.441c-9.169,0-19.855,4.624-19.855,17.582
		c0,5.078,2.274,10.307,6.29,14.247c4.396,4.396,10.307,6.82,16.599,6.82c5.985,0,10.76-1.667,14.094-5.002
		C212.194,42.287,213.938,37.665,213.938,32.359z"/>
	<path d="M15.081,10.155c2.5-0.227,3.411-0.683,4.774-0.834l0.077-1.818C18.719,7.655,13.49,7.73,9.928,7.73
		C7.048,7.73,1.364,7.578,0,7.503l0.455,1.818c1.365,0.151,3.032,0.607,4.396,0.834c0.227,3.41,0.227,14.474,0.227,16.9v10.458
		c0.076,6.214-0.833,21.447-1.137,23.946l-0.075,0.759l11.215-3.258l0.303-0.228l-0.075-0.381l-0.076-0.378
		c-0.152-0.682-0.303-6.29-0.303-19.931V27.433C14.854,17.203,15.005,11.595,15.081,10.155z"/>
	<path d="M160.737,10.231c2.046-0.228,2.955-0.833,4.395-0.985l0.457-1.743c-1.289,0.152-5.458,0.227-8.943,0.227
		c-2.729,0-8.716-0.152-9.928-0.227l0.378,1.743c2.048,0.152,2.88,0.606,4.019,0.909c0.303,2.652,0.378,11.443,0.378,15.46v2.5
		c-6.139-0.075-23.57,0-28.723,0v-2.5c0-4.775,0.15-12.808,0.455-15.46c1.137-0.227,1.971-0.757,3.941-0.909l0.378-1.743
		c-1.137,0.152-5.379,0.227-8.943,0.227c-2.65,0-7.653-0.152-8.865-0.227l0.378,1.743c2.35,0.152,3.182,0.606,4.472,0.909l0,0
		c0.226,3.334,0.305,14.399,0.305,16.824v5.911v4.472c0,6.669,0.149,15.156,0,17.658v0.228l8.562-2.577v-0.229l-0.075-0.377
		c-0.305-2.274-0.53-11.444-0.53-17.733v-2.956c2.273-0.076,25.083-0.985,28.722-0.91v3.941c0,6.593,0,14.853-0.381,16.824
		l-0.151,0.759l-0.151,0.756h0.834h0.835h7.502h0.833h0.833l-0.15-0.833l-0.152-0.834c-0.379-1.819-0.606-11.291-0.606-19.855
		v-4.396C160.435,24.099,160.51,13.187,160.737,10.231z"/>
	<path d="M106.173,57.672l8.639-2.577l-0.529-0.834c0-0.075-1.668-3.105-3.561-7.729c-0.834-1.97-2.274-5.836-3.714-9.548
		c-1.667-4.472-3.335-8.716-3.713-9.474c-0.455-1.137-10.08-26.903-10.156-27.131L92.987,0l-0.152,0.379
		c-0.228,0.606-1.364,3.486-3.031,7.882C83.741,24.023,71.389,56.004,68.13,62.598l6.821-3.411
		c1.288-5.379,5.684-17.884,7.654-23.265c0.531-1.516,0.91-2.502,0.985-2.804c0.076-0.151,0.076-0.303,0.228-0.53
		c0.076-0.229,0.378-1.289,0.53-1.592l11.747-0.606c0.455,1.212,5.305,13.338,4.244,10.457L106.173,57.672z M85.181,28.192
		c1.667-4.548,4.093-10.761,5.078-12.808l4.774,12.808H85.181z"/>
</g>
</svg>
